<?xml version="1.0" encoding="utf-8" ?>
<svg xmlns="http://www.w3.org/2000/svg" xmlns:xlink="http://www.w3.org/1999/xlink" width="200" height="200" shape-rendering="crispEdges">
	<path fill="red" d="M0 0L200 0L200 200L0 200L0 0Z"/>
	<path transform="translate(100 100)" d="M10 0Q10 0.245486 9.98795 0.490677Q9.97591 0.735867 9.95185 0.980171Q9.92778 1.22448 9.89176 1.4673Q9.85574 1.71013 9.80785 1.9509Q9.75996 2.19167 9.70031 2.4298Q9.64066 2.66793 9.5694 2.90285Q9.49814 3.13776 9.41544 3.3689Q9.33274 3.60003 9.23879 3.82683Q9.14485 4.05363 9.03989 4.27555Q8.93493 4.49747 8.81921 4.71397Q8.70349 4.93047 8.57729 5.14103Q8.45108 5.35159 8.31469 5.5557Q8.17831 5.75982 8.03207 5.95699Q7.88584 6.15417 7.7301 6.34393Q7.57437 6.5337 7.40951 6.71559Q7.24465 6.89748 7.07107 7.07107Q6.89748 7.24465 6.71559 7.40951Q6.5337 7.57437 6.34393 7.7301Q6.15417 7.88584 5.95699 8.03207Q5.75982 8.17831 5.5557 8.3147Q5.35159 8.45108 5.14103 8.57729Q4.93047 8.70349 4.71397 8.81921Q4.49747 8.93493 4.27555 9.03989Q4.05363 9.14485 3.82683 9.23879Q3.60003 9.33274 3.3689 9.41544Q3.13776 9.49814 2.90285 9.5694Q2.66793 9.64066 2.4298 9.70031Q2.19167 9.75996 1.9509 9.80785Q1.71013 9.85574 1.4673 9.89176Q1.22448 9.92778 0.980171 9.95185Q0.735867 9.97591 0.490677 9.98795Q0.245486 10 0 10Q-0.245486 10 -0.490677 9.98795Q-0.735867 9.97591 -0.980171 9.95185Q-1.22448 9.92778 -1.4673 9.89176Q-1.71013 9.85574 -1.9509 9.80785Q-2.19167 9.75996 -2.4298 9.70031Q-2.66793 9.64066 -2.90285 9.5694Q-3.13776 9.49814 -3.3689 9.41544Q-3.60003 9.33274 -3.82683 9.23879Q-4.05363 9.14485 -4.27555 9.03989Q-4.49747 8.93493 -4.71397 8.81921Q-4.93047 8.70349 -5.14103 8.57729Q-5.35159 8.45108 -5.5557 8.31469Q-5.75982 8.17831 -5.95699 8.03207Q-6.15417 7.88584 -6.34393 7.7301Q-6.5337 7.57437 -6.71559 7.40951Q-6.89748 7.24465 -7.07107 7.07107Q-7.24465 6.89748 -7.40951 6.71559Q-7.57437 6.5337 -7.7301 6.34393Q-7.88584 6.15417 -8.03207 5.95699Q-8.17831 5.75982 -8.3147 5.5557Q-8.45108 5.35159 -8.57729 5.14103Q-8.70349 4.93047 -8.81921 4.71397Q-8.93493 4.49747 -9.03989 4.27555Q-9.14485 4.05363 -9.23879 3.82683Q-9.33274 3.60003 -9.41544 3.3689Q-9.49814 3.13776 -9.5694 2.90285Q-9.64066 2.66793 -9.70031 2.4298Q-9.75996 2.19167 -9.80785 1.9509Q-9.85574 1.71013 -9.89176 1.4673Q-9.92778 1.22448 -9.95185 0.980171Q-9.97591 0.735867 -9.98795 0.490677Q-10 0.245486 -10 0Q-10 -0.245486 -9.98795 -0.490677Q-9.97591 -0.735867 -9.95185 -0.980171Q-9.92778 -1.22448 -9.89176 -1.4673Q-9.85574 -1.71013 -9.80785 -1.9509Q-9.75996 -2.19167 -9.70031 -2.4298Q-9.64066 -2.66793 -9.5694 -2.90285Q-9.49814 -3.13776 -9.41544 -3.3689Q-9.33274 -3.60003 -9.23879 -3.82683Q-9.14485 -4.05363 -9.03989 -4.27555Q-8.93493 -4.49747 -8.81921 -4.71397Q-8.70349 -4.93047 -8.57729 -5.14103Q-8.45108 -5.35159 -8.31469 -5.5557Q-8.17831 -5.75982 -8.03207 -5.95699Q-7.88584 -6.15417 -7.7301 -6.34393Q-7.57437 -6.5337 -7.40951 -6.71559Q-7.24465 -6.89748 -7.07107 -7.07107Q-6.89748 -7.24465 -6.71559 -7.40951Q-6.5337 -7.57437 -6.34393 -7.7301Q-6.15417 -7.88584 -5.95699 -8.03207Q-5.75982 -8.17831 -5.5557 -8.3147Q-5.35159 -8.45108 -5.14103 -8.57729Q-4.93047 -8.70349 -4.71397 -8.81921Q-4.49747 -8.93493 -4.27555 -9.03989Q-4.05363 -9.14485 -3.82683 -9.23879Q-3.60003 -9.33274 -3.3689 -9.41544Q-3.13776 -9.49814 -2.90285 -9.5694Q-2.66793 -9.64066 -2.4298 -9.70031Q-2.19167 -9.75996 -1.9509 -9.80785Q-1.71013 -9.85574 -1.4673 -9.89176Q-1.22448 -9.92778 -0.980171 -9.95185Q-0.735867 -9.97591 -0.490677 -9.98795Q-0.245486 -10 0 -10Q0.245486 -10 0.490677 -9.98795Q0.735867 -9.97591 0.980171 -9.95185Q1.22448 -9.92778 1.4673 -9.89176Q1.71013 -9.85574 1.9509 -9.80785Q2.19167 -9.75996 2.4298 -9.70031Q2.66793 -9.64066 2.90285 -9.5694Q3.13776 -9.49814 3.3689 -9.41544Q3.60003 -9.33274 3.82683 -9.23879Q4.05363 -9.14485 4.27555 -9.03989Q4.49747 -8.93493 4.71397 -8.81921Q4.93047 -8.70349 5.14103 -8.57729Q5.35159 -8.45108 5.5557 -8.31469Q5.75982 -8.17831 5.95699 -8.03207Q6.15417 -7.88584 6.34393 -7.7301Q6.5337 -7.57437 6.71559 -7.40951Q6.89748 -7.24465 7.07107 -7.07107Q7.24465 -6.89748 7.40951 -6.71559Q7.57437 -6.5337 7.7301 -6.34393Q7.88584 -6.15417 8.03207 -5.95699Q8.17831 -5.75982 8.3147 -5.5557Q8.45108 -5.35159 8.57729 -5.14103Q8.70349 -4.93047 8.81921 -4.71397Q8.93493 -4.49747 9.03989 -4.27555Q9.14485 -4.05363 9.23879 -3.82683Q9.33274 -3.60003 9.41544 -3.3689Q9.49814 -3.13776 9.5694 -2.90285Q9.64066 -2.66793 9.70031 -2.4298Q9.75996 -2.19167 9.80785 -1.9509Q9.85574 -1.71013 9.89176 -1.4673Q9.92778 -1.22448 9.95185 -0.980171Q9.97591 -0.735867 9.98795 -0.490677Q10 -0.245486 10 0Z"/>
</svg>
